<?xml version="1.0" encoding="utf-8"?>
<!-- Generator: Adobe Illustrator 24.0.1, SVG Export Plug-In . SVG Version: 6.00 Build 0)  -->
<svg version="1.1" id="Layer_1" xmlns="http://www.w3.org/2000/svg" xmlns:xlink="http://www.w3.org/1999/xlink" x="0px" y="0px"
	 viewBox="0 0 377 97" style="enable-background:new 0 0 377 97;" xml:space="preserve">
<style type="text/css">
	.st0{fill:#FFFFFF;}
	.st1{fill:#FFFFFF;stroke:#FFFFFF;stroke-width:6;stroke-miterlimit:10;}
</style>
<g>
	<g>
		<g>
			<defs>
				<polyline id="SVGID_5_" points="168.01,31.4 168,31.4 145.98,0.62 124.02,0.62 124.02,16.96 138.67,16.96 158.5,44.68 
					158.49,44.69 138.66,72.42 124.02,72.42 124.02,88.77 145.89,88.77 168,57.98 168,57.97 177.5,44.69 177.51,44.68 168.01,31.4 
									"/>
			</defs>
			<use xlink:href="#SVGID_5_"  style="overflow:visible;fill:#FFFFFF;"/>
			<clipPath id="SVGID_1_">
				<use xlink:href="#SVGID_5_"  style="overflow:visible;"/>
			</clipPath>
		</g>
	</g>
	<g>
		<g>
			<defs>
				<polygon id="SVGID_7_" points="189.72,0.62 178,16.96 171.46,26.64 181.03,40.03 197.89,16.95 211.65,16.96 211.65,0.62 				"/>
			</defs>
			<use xlink:href="#SVGID_7_"  style="overflow:visible;fill:#FFFFFF;"/>
			<clipPath id="SVGID_2_">
				<use xlink:href="#SVGID_7_"  style="overflow:visible;"/>
			</clipPath>
		</g>
	</g>
	<path class="st0" d="M49.2,23.74c-2.32-3.12-5.36-5.47-9.11-7.03c-3.75-1.56-8.28-2.34-13.57-2.34c-3.35,0-6.81,0.37-10.37,1.11
		c-3.56,0.74-7.29,1.86-11.17,3.34v10.51c3.47-1.98,7.03-3.48,10.69-4.51c3.66-1.03,7.27-1.54,10.85-1.54
		c5.6,0,9.67,1.15,12.23,3.46c2.55,2.31,3.85,6.01,3.89,11.12v1.66H28.52c-9.26,0-16.28,1.85-21.06,5.54
		c-4.78,3.7-7.17,9.1-7.17,16.23c0,6.17,1.94,11.1,5.83,14.77c3.89,3.68,9.09,5.52,15.6,5.52c4.88,0,9.02-0.91,12.43-2.71
		c3.41-1.81,6.24-4.62,8.49-8.43l-0.02,11.36h10.5l0.09-38.39c0-5.6-0.3-9.8-0.91-12.6C51.68,28,50.65,25.64,49.2,23.74z
		 M42.63,50.08c-0.04,7.09-1.72,12.64-5.03,16.65c-3.31,4.02-7.87,6.03-13.66,6.03c-4.12,0-7.33-1.06-9.66-3.2
		c-2.33-2.13-3.49-5.12-3.49-8.97c0-4.27,1.55-7.48,4.66-9.63c3.1-2.15,7.72-3.23,13.85-3.23h3.49h9.83V50.08z"/>
	<polygon class="st0" points="113.72,17.84 100.94,17.85 73.27,44.76 73.24,0.56 62.45,0.59 62.43,81.89 73.23,81.87 73.27,56.53 
		81.1,49.16 104.55,81.89 117.41,81.89 88.47,42.3 	"/>
	<path class="st0" d="M245.33,70.73c-1.79-1.86-2.69-5.16-2.69-9.89l-0.03-34.89h23.97v-8.11h-23.95l-0.03-17.28h-10.45l-0.04,17.28
		h-17.11v8.11h17.16L232.12,26l0.01,34.84c0,7.74,1.62,13.18,4.86,16.34c3.23,3.16,8.79,4.74,16.68,4.74h12.85v-8.39H254.7
		C250.25,73.53,247.12,72.59,245.33,70.73z"/>
	<path class="st0" d="M295.49,14.28c-9.14,0-16.46,3.05-21.94,9.14c-5.48,6.09-8.23,14.25-8.23,24.45c0,10.48,2.8,18.69,8.4,24.66
		c5.6,5.96,13.37,8.94,23.31,8.94c3.47,0,7.06-0.41,10.77-1.23c3.72-0.82,7.57-2.04,11.57-3.69V66.1
		c-4.15,2.17-8.06,3.79-11.71,4.86c-3.66,1.07-7.16,1.6-10.51,1.6c-6.63,0-11.76-1.9-15.4-5.71c-3.64-3.81-5.3-10.07-5-18.8v-0.34
		h45.54v-5.15c-0.31-7.81-2.81-14.47-7.52-20C310.07,17.04,303.64,14.28,295.49,14.28z M277.15,39.53c0.3-4.19,2.09-7.96,5.37-11.32
		c3.28-3.35,7.45-5.03,12.52-5.03c5.18,0,9.14,1.61,11.91,4.83c2.76,3.22,4.37,7.04,4.83,11.46L277.15,39.53z"/>
	<path class="st0" d="M359.12,23.55c3.54,0,6.71,0.55,9.51,1.66c2.8,1.11,5.59,2.89,8.37,5.37V19.55c-2.97-1.68-5.92-2.91-8.86-3.72
		c-2.93-0.8-5.95-1.2-9.03-1.2c-9.91,0-17.65,2.97-23.23,8.91c-5.58,5.94-8.37,14.17-8.37,24.69c0,10.51,2.79,18.74,8.37,24.68
		c5.58,5.95,13.32,8.92,23.23,8.92c3.12,0,6.18-0.41,9.17-1.23c2.99-0.82,5.9-2.05,8.72-3.68V66.01c-2.48,2.36-5.16,4.1-8.06,5.23
		c-2.89,1.12-6.17,1.68-9.83,1.68c-6.55,0-11.61-2.15-15.17-6.43c-3.56-4.28-5.34-10.36-5.34-18.25c0-7.92,1.77-14.02,5.31-18.29
		C347.46,25.68,352.52,23.55,359.12,23.55z"/>
	<path class="st1" d="M184.72,95.54"/>
</g>
</svg>
