<?xml version="1.0" encoding="UTF-8"?>
<svg width="85.481mm" height="34.575mm" version="1.1" viewBox="0 0 85.481 34.575" xmlns="http://www.w3.org/2000/svg" xmlns:cc="http://creativecommons.org/ns#" xmlns:dc="http://purl.org/dc/elements/1.1/" xmlns:rdf="http://www.w3.org/1999/02/22-rdf-syntax-ns#">
 <metadata>
  <rdf:RDF>
   <cc:Work rdf:about="">
    <dc:format>image/svg+xml</dc:format>
    <dc:type rdf:resource="http://purl.org/dc/dcmitype/StillImage"/>
    <dc:title/>
   </cc:Work>
  </rdf:RDF>
 </metadata>
 <g transform="translate(37.379 -130.01)" shape-rendering="geometricPrecision">
  <g transform="matrix(1.0247 0 0 .97594 -76.353 -9.5475)" fill="#808080" stroke-width=".25297px" aria-label="SPONSORED LINKS">
   <path d="m42.339 176.51q0-0.49409-0.37057-0.82513-0.37057-0.33599-1.3143-0.56327-1.1414-0.27175-1.7837-0.80043-0.63738-0.52868-0.63738-1.3291 0-0.83996 0.68679-1.4032 0.69173-0.56327 1.7886-0.56327 1.1809 0 1.8775 0.64726 0.70161 0.64726 0.67691 1.502l-0.0099 0.0297h-0.92889q0-0.63244-0.41998-1.0228-0.41504-0.39034-1.1957-0.39034-0.72632 0-1.1166 0.33104-0.38539 0.32611-0.38539 0.85478 0 0.46939 0.41998 0.78561 0.41998 0.31128 1.3637 0.54844 1.1364 0.28163 1.7293 0.83008 0.59291 0.54844 0.59291 1.3588 0 0.8696-0.71149 1.3983t-1.8578 0.52868q-1.0771 0-1.9072-0.58303-0.82513-0.58303-0.80043-1.5613l0.0099-0.0297h0.92889q0 0.69173 0.50892 1.0524 0.50891 0.36068 1.2599 0.36068 0.7362 0 1.1661-0.31127 0.42986-0.31128 0.42986-0.8449z"/>
   <path d="m45.284 175.44v2.8855h-0.97336v-7.194h2.7521q1.1512 0 1.7886 0.59291t0.63738 1.5613q0 0.98324-0.63738 1.5712-0.63738 0.58303-1.7886 0.58303zm0-0.7609h1.7787q0.73126 0 1.0919-0.39033 0.36069-0.39528 0.36069-0.99313t-0.36563-0.99806q-0.36069-0.40022-1.087-0.40022h-1.7787z"/>
   <path d="m55.823 175.37q0 1.3192-0.82019 2.1888-0.81525 0.86961-2.1197 0.86961-1.2599 0-2.0505-0.86961-0.78561-0.8696-0.78561-2.1888v-1.2797q0-1.3143 0.78561-2.1888 0.79055-0.87454 2.0505-0.87454 1.3044 0 2.1197 0.87454 0.82019 0.8696 0.82019 2.1888zm-0.97336-1.2896q0-0.98819-0.53362-1.6206-0.53362-0.63244-1.4329-0.63244-0.84984 0-1.3588 0.63244-0.50397 0.63243-0.50397 1.6206v1.2896q0 0.99806 0.50397 1.6305 0.50891 0.63244 1.3588 0.63244 0.90419 0 1.4329-0.6275 0.53362-0.63244 0.53362-1.6354z"/>
   <path d="m62.301 178.32h-0.97336l-3.4636-5.5635-0.02965 0.01v5.5536h-0.97336v-7.194h0.97336l3.4636 5.5536 0.02965-0.01v-5.5437h0.97336z"/>
   <path d="m67.578 176.51q0-0.49409-0.37057-0.82513-0.37057-0.33599-1.3143-0.56327-1.1414-0.27175-1.7837-0.80043-0.63738-0.52868-0.63738-1.3291 0-0.83996 0.68679-1.4032 0.69173-0.56327 1.7886-0.56327 1.1809 0 1.8775 0.64726 0.70161 0.64726 0.6769 1.502l-0.0099 0.0297h-0.92889q0-0.63244-0.41998-1.0228-0.41504-0.39034-1.1957-0.39034-0.72632 0-1.1166 0.33104-0.38539 0.32611-0.38539 0.85478 0 0.46939 0.41998 0.78561 0.41998 0.31128 1.3637 0.54844 1.1364 0.28163 1.7293 0.83008 0.59291 0.54844 0.59291 1.3588 0 0.8696-0.71149 1.3983t-1.8578 0.52868q-1.0771 0-1.9072-0.58303-0.82513-0.58303-0.80043-1.5613l0.0099-0.0297h0.92889q0 0.69173 0.50892 1.0524 0.50891 0.36068 1.2599 0.36068 0.7362 0 1.1661-0.31127 0.42986-0.31128 0.42986-0.8449z"/>
   <path d="m74.995 175.37q0 1.3192-0.82019 2.1888-0.81525 0.86961-2.1197 0.86961-1.2599 0-2.0505-0.86961-0.78561-0.8696-0.78561-2.1888v-1.2797q0-1.3143 0.78561-2.1888 0.79055-0.87454 2.0505-0.87454 1.3044 0 2.1197 0.87454 0.82019 0.8696 0.82019 2.1888zm-0.97336-1.2896q0-0.98819-0.53362-1.6206-0.53362-0.63244-1.4329-0.63244-0.84984 0-1.3588 0.63244-0.50397 0.63243-0.50397 1.6206v1.2896q0 0.99806 0.50397 1.6305 0.50891 0.63244 1.3588 0.63244 0.90419 0 1.4329-0.6275 0.53362-0.63244 0.53362-1.6354z"/>
   <path d="m77.006 175.21v3.1177h-0.97336v-7.189h2.6039q1.1809 0 1.8034 0.52374t0.62256 1.5218q0 0.55338-0.29151 0.96348-0.28657 0.4101-0.83996 0.6522 0.59291 0.1927 0.84984 0.6275 0.26187 0.42986 0.26187 1.0672v0.6769q0 0.33598 0.07411 0.60279t0.25693 0.4348v0.11859h-1.003q-0.1927-0.16799-0.24705-0.49409-0.05435-0.32611-0.05435-0.67197v-0.65714q0-0.58303-0.34092-0.93878-0.34092-0.35574-0.91407-0.35574zm0-0.76584h1.5317q0.82513 0 1.1858-0.31128 0.36563-0.31622 0.36563-0.95854 0-0.60773-0.35575-0.93878-0.3508-0.33598-1.0969-0.33598h-1.6305z"/>
   <path d="m86.586 174.99h-3.2956v2.5742h3.7996v0.7609h-4.7729v-7.194h4.7186v0.76584h-3.7452v2.3272h3.2956z"/>
   <path d="m87.812 178.32v-7.194h2.2086q1.4131 0 2.2679 0.8696 0.85478 0.86466 0.85478 2.2382v0.98324q0 1.3785-0.85478 2.2432-0.85478 0.85972-2.2679 0.85972zm0.97336-6.4281v5.6672h1.2352q0.99807 0 1.5712-0.65715 0.57809-0.65714 0.57809-1.6848v-0.99312q0-1.0178-0.57809-1.675-0.57315-0.65714-1.5712-0.65714z"/>
   <path d="m97.126 177.56h3.4043v0.7609h-4.3777v-7.194h0.97336z"/>
   <path d="m102.24 178.32h-0.97831v-7.194h0.97831z"/>
   <path d="m109.1 178.32h-0.97336l-3.4636-5.5635-0.0296 0.01v5.5536h-0.97336v-7.194h0.97336l3.4636 5.5536 0.0297-0.01v-5.5437h0.97336z"/>
   <path d="m112.28 175.08h-0.83995v3.2462h-0.97337v-7.194h0.97337v3.182h0.75102l2.5742-3.182h1.0771l0.0148 0.0247-2.7916 3.4537 2.9942 3.6909-0.0148 0.0247h-1.1611z"/>
   <path d="m120.47 176.51q0-0.49409-0.37056-0.82513-0.37057-0.33599-1.3143-0.56327-1.1414-0.27175-1.7837-0.80043-0.63738-0.52868-0.63738-1.3291 0-0.83996 0.68679-1.4032 0.69173-0.56327 1.7886-0.56327 1.1809 0 1.8776 0.64726 0.70161 0.64726 0.67691 1.502l-0.01 0.0297h-0.92889q0-0.63244-0.41998-1.0228-0.41503-0.39034-1.1957-0.39034-0.72631 0-1.1166 0.33104-0.38539 0.32611-0.38539 0.85478 0 0.46939 0.41998 0.78561 0.41998 0.31128 1.3637 0.54844 1.1364 0.28163 1.7293 0.83008 0.59291 0.54844 0.59291 1.3588 0 0.8696-0.7115 1.3983-0.71149 0.52868-1.8578 0.52868-1.0771 0-1.9072-0.58303-0.82513-0.58303-0.80042-1.5613l0.01-0.0297h0.92889q0 0.69173 0.50891 1.0524 0.50892 0.36068 1.2599 0.36068 0.7362 0 1.166-0.31127 0.42986-0.31128 0.42986-0.8449z"/>
  </g>
  <path d="m-29.935 150.08c-2.0499 0.17391-2.5163-1.1877-2.5163-2.0555v-18.016h-4.9276v18.61c0 4.8434 3.3078 6.295 7.4438 5.639zm7.2168-15.369v-4.6692h-4.8914v4.6692zm-4.8914 2.0075v17.503h4.9254v-17.503zm7.7902-0.0367v17.54h4.9277v-13.008c2.9852-1.9025 6.8429-0.40811 7.0481 3.0796v9.9282h4.9254v-10.136c0-4.4973-3.2715-7.4381-7.2985-7.6438-2.0499-0.10504-3.8128 0.48233-4.8546 1.7971l-0.71914-1.5572zm35.977 17.54v-0.24246zm0-0.24246-7.1552-9.962 6.8684-7.0928v-0.27672h-5.3942l-6.113 6.0888v-12.729h-4.7844v24.215h4.7844v-4.847l-3.0894 1.3494 4.2751-4.1484 5.3578 7.646h5.2513zm12.861-5.0507c-2.9847 2.5587-8.0539 1.8339-8.8815-1.626h12.839c0.3955-0.86393 0.49685-1.7992 0.50254-2.3523 0.06458-5.2227-3.667-8.6798-8.9886-8.6478-6.0427 0.0362-9.2617 4.5661-9.2779 9.0981-0.01823 4.5316 3.0923 9.1664 9.3123 9.1664 2.662 0 5.0712-0.96938 7.2645-3.2856zm-8.8815-5.2589c0.3955-2.3508 2.4822-3.2856 4.3863-3.2856 1.87 0 3.7766 0.86441 4.1722 3.2856zm15.2-7.1594v17.711h4.8532v-10.932c0-2.872 3.5238-3.3909 5.8261-1.9367l2.0861-3.5648c-2.4092-2.0054-6.2222-2.0742-8.379 0.55528l-0.3955-1.8338z" fill-rule="evenodd" stroke-width="2.8094"/>
 </g>
</svg>
