<?xml version="1.0" encoding="UTF-8" standalone="no"?>
<!-- Created with Inkscape (http://www.inkscape.org/) -->

<svg
   xmlns:dc="http://purl.org/dc/elements/1.1/"
   xmlns:cc="http://creativecommons.org/ns#"
   xmlns:rdf="http://www.w3.org/1999/02/22-rdf-syntax-ns#"
   xmlns:svg="http://www.w3.org/2000/svg"
   xmlns="http://www.w3.org/2000/svg"
   xmlns:sodipodi="http://sodipodi.sourceforge.net/DTD/sodipodi-0.dtd"
   xmlns:inkscape="http://www.inkscape.org/namespaces/inkscape"
   width="415"
   height="100"
   viewBox="0 0 109.80208 26.458333"
   version="1.1"
   id="svg6641"
   inkscape:version="0.92.3 (2405546, 2018-03-11)"
   sodipodi:docname="gostilne.svg">
  <defs
     id="defs6635">
    <clipPath
       clipPathUnits="userSpaceOnUse"
       id="clipPath1508">
      <path
         d="M 0,0 H 1000 V 852 H 0 Z"
         id="path1506"
         inkscape:connector-curvature="0" />
    </clipPath>
  </defs>
  <sodipodi:namedview
     id="base"
     pagecolor="#ffffff"
     bordercolor="#666666"
     borderopacity="1.0"
     inkscape:pageopacity="0.0"
     inkscape:pageshadow="2"
     inkscape:zoom="1.979899"
     inkscape:cx="85.296873"
     inkscape:cy="2.2272201"
     inkscape:document-units="mm"
     inkscape:current-layer="layer1"
     showgrid="false"
     units="px"
     inkscape:window-width="1920"
     inkscape:window-height="1031"
     inkscape:window-x="0"
     inkscape:window-y="0"
     inkscape:window-maximized="1" />
  <metadata
     id="metadata6638">
    <rdf:RDF>
      <cc:Work
         rdf:about="">
        <dc:format>image/svg+xml</dc:format>
        <dc:type
           rdf:resource="http://purl.org/dc/dcmitype/StillImage" />
        <dc:title></dc:title>
      </cc:Work>
    </rdf:RDF>
  </metadata>
  <g
     inkscape:label="Layer 1"
     inkscape:groupmode="layer"
     id="layer1"
     transform="translate(0,-270.54167)">
    <g
       id="g889"
       transform="matrix(0.54977928,0,0,0.54977928,24.222838,128.93539)"
       style="stroke-width:1.81891179;fill:#ffffff">
      <g
         transform="matrix(0.35277777,0,0,-0.35277777,-21.260942,294.54339)"
         id="g24"
         style="stroke-width:1.81891179;fill:#ffffff">
        <path
           inkscape:connector-curvature="0"
           id="path26"
           style="fill:#ffffff;fill-opacity:1;fill-rule:nonzero;stroke:none;stroke-width:1.81891179"
           d="m 0,0 c 0,7.933 -1.794,12.288 -3.07,20.987 -5.249,-2.689 -11.907,-4.989 -21.761,-4.989 -21.886,0 -39.794,12.284 -39.794,41.844 0,30.586 23.413,45.685 49.138,45.685 10.879,0 18.684,-2.814 22.778,-6.528 2.177,-1.912 2.819,-4.22 2.819,-6.65 0,-5.246 -3.971,-9.986 -9.468,-9.986 -6.402,0 -10.237,6.783 -19.585,6.783 -12.542,0 -25.849,-9.213 -25.849,-29.304 0,-20.222 10.106,-27.644 21.758,-27.644 8.32,0 14.072,3.203 16.632,5.891 -0.897,4.346 -1.407,10.491 -1.407,15.61 0,7.038 3.583,13.308 12.158,13.308 8.575,0 12.151,-5.882 12.151,-13.946 0,-5.376 -1.268,-11.904 -3.317,-15.87 2.683,-10.365 6.012,-19.708 6.012,-30.072 0,-19.323 -11.385,-36.729 -43.257,-36.729 -26.359,0 -37.369,11.135 -37.369,22.389 0,12.032 9.982,17.664 14.714,19.969 3.715,1.794 7.175,1.54 8.706,-0.636 1.918,-2.436 1.918,-5.251 -0.255,-7.04 -2.304,-1.792 -4.477,-4.612 -4.477,-8.448 0,-8.706 6.522,-12.027 19.964,-12.027 C -9.595,-17.403 0,-11.264 0,0" />
      </g>
      <g
         transform="matrix(0.35277777,0,0,-0.35277777,4.153167,271.11373)"
         id="g28"
         style="stroke-width:1.81891179;fill:#ffffff">
        <path
           inkscape:connector-curvature="0"
           id="path30"
           style="fill:#ffffff;fill-opacity:1;fill-rule:nonzero;stroke:none;stroke-width:1.81891179"
           d="m 0,0 c 1.786,0.767 4.732,1.284 7.933,1.284 12.797,0 24.318,-11.521 24.318,-29.438 0,-26.106 -16.516,-37.111 -35.839,-37.111 -19.454,0 -33.271,12.157 -33.271,33.273 0,26.11 16.632,35.833 31.996,35.833 2.3,0 4.221,-1.406 4.863,-3.841 m -2.691,-25.336 c -3.201,-0.899 -5.633,1.024 -6.657,3.713 -1.663,4.094 -1.276,10.748 1.925,14.846 -7.809,-3.592 -11.521,-12.542 -11.521,-24.573 0,-12.926 7.037,-20.474 16.64,-20.474 11.513,0 16.635,8.954 16.635,23.028 0,12.288 -2.563,17.921 -8.32,17.921 -4.604,0 -6.784,-3.967 -5.246,-8.065 1.021,-2.811 -0.642,-5.629 -3.456,-6.396" />
      </g>
      <g
         transform="matrix(0.35277777,0,0,-0.35277777,34.712966,286.77893)"
         id="g32"
         style="stroke-width:1.81891179;fill:#ffffff">
        <path
           inkscape:connector-curvature="0"
           id="path34"
           style="fill:#ffffff;fill-opacity:1;fill-rule:nonzero;stroke:none;stroke-width:1.81891179"
           d="m 0,0 c 0,4.861 -3.074,6.917 -12.159,8.575 -16.763,3.071 -24.572,6.781 -24.572,19.065 0,13.44 10.368,21.884 29.177,21.884 13.056,0 18.298,-3.835 21.889,-6.781 2.045,-1.663 2.687,-3.835 2.687,-6.139 0,-4.997 -3.711,-9.217 -8.838,-9.217 -6.649,0 -7.674,8.065 -18.294,8.065 -6.27,0 -8.702,-2.562 -8.702,-7.041 0,-4.48 6.139,-5.89 13.821,-7.038 13.697,-2.051 22.91,-5.246 22.91,-18.684 0,-17.02 -14.084,-23.548 -30.712,-23.548 -11.779,0 -20.482,3.199 -24.19,6.655 -2.045,1.788 -2.686,3.839 -2.686,6.14 0,4.996 3.711,9.216 8.826,9.216 8.064,0 8.575,-7.933 19.322,-7.933 C -4.226,-6.781 0,-4.608 0,0" />
      </g>
      <g
         transform="matrix(0.35277777,0,0,-0.35277777,60.804795,287.95248)"
         id="g36"
         style="stroke-width:1.81891179;fill:#ffffff">
        <path
           inkscape:connector-curvature="0"
           id="path38"
           style="fill:#ffffff;fill-opacity:1;fill-rule:nonzero;stroke:none;stroke-width:1.81891179"
           d="m 0,0 c 1.663,2.047 4.736,1.794 6.785,0 2.177,-1.92 2.037,-4.604 0.51,-7.423 -2.435,-4.473 -7.933,-10.111 -19.198,-10.111 -14.842,0 -23.038,8.831 -23.038,19.838 0,4.481 0.642,9.085 0.642,13.44 0,9.081 -0.124,17.018 -0.379,24.312 h -2.815 c -3.201,0 -5.76,2.557 -5.76,5.758 0,3.199 2.559,5.757 5.76,5.757 h 2.297 c -0.255,5.25 -0.379,10.111 -0.379,14.72 0,5.248 4.345,9.595 9.595,9.595 5.25,0 9.596,-4.347 9.596,-9.595 0,-3.971 -0.124,-8.828 -0.255,-14.335 5.254,0.131 9.858,0.257 16.898,0.257 3.58,0 6.391,-2.815 6.391,-6.399 0,-3.582 -2.811,-6.396 -6.391,-6.396 -7.299,0 -11.904,0.126 -17.281,0.253 -0.383,-10.494 -0.638,-22.015 -0.638,-32.248 0,-5.504 2.814,-10.238 8.954,-10.238 4.102,0 7.299,1.025 8.706,2.815" />
      </g>
      <g
         transform="matrix(0.35277777,0,0,-0.35277777,72.403035,258.92289)"
         id="g40"
         style="stroke-width:1.81891179;fill:#ffffff">
        <path
           inkscape:connector-curvature="0"
           id="path42"
           style="fill:#ffffff;fill-opacity:1;fill-rule:nonzero;stroke:none;stroke-width:1.81891179"
           d="m 0,0 c 6.019,0 10.879,-4.865 10.879,-10.879 0,-6.018 -4.86,-10.879 -10.879,-10.879 -6.008,0 -10.871,4.861 -10.871,10.879 C -10.871,-4.865 -6.008,0 0,0 m -9.464,-81.904 c 0,4.477 0.634,8.959 0.634,15.356 0,10.875 -1.28,27.514 -1.28,27.514 0,5.245 4.357,9.596 9.6,9.596 5.246,0 9.603,-4.351 9.603,-9.596 0,-16.639 -1.283,-26.231 -1.283,-41.587 0,-2.439 2.049,-4.482 4.476,-4.482 1.926,0 3.592,0.765 4.872,2.174 1.79,1.924 4.604,1.792 6.781,0 2.172,-1.79 2.049,-4.478 0.506,-7.423 -2.424,-4.478 -6.65,-9.469 -16.635,-9.469 -9.851,0 -17.274,8.065 -17.274,17.917" />
      </g>
      <g
         transform="matrix(0.35277777,0,0,-0.35277777,85.540975,287.81684)"
         id="g44"
         style="stroke-width:1.81891179;fill:#ffffff">
        <path
           inkscape:connector-curvature="0"
           id="path46"
           style="fill:#ffffff;fill-opacity:1;fill-rule:nonzero;stroke:none;stroke-width:1.81891179"
           d="m 0,0 c 0,3.841 0.638,11.517 0.638,15.356 0,37.11 -1.283,49.909 -1.283,60.784 0,5.25 4.353,9.601 9.599,9.601 5.246,0 9.599,-4.351 9.599,-9.601 0,-10.875 -1.279,-22.39 -1.279,-74.857 0,-2.439 2.049,-4.482 4.484,-4.482 1.914,0 3.58,0.765 4.86,2.174 1.794,1.924 4.601,1.793 6.781,0 2.177,-1.789 2.049,-4.478 0.51,-7.422 -2.428,-4.479 -6.653,-9.47 -16.635,-9.47 C 7.423,-17.917 0,-9.852 0,0" />
      </g>
      <g
         transform="matrix(0.35277777,0,0,-0.35277777,116.46233,287.81684)"
         id="g48"
         style="stroke-width:1.81891179;fill:#ffffff">
        <path
           inkscape:connector-curvature="0"
           id="path50"
           style="fill:#ffffff;fill-opacity:1;fill-rule:nonzero;stroke:none;stroke-width:1.81891179"
           d="m 0,0 c 0,7.68 1.279,15.356 1.279,28.154 0,4.352 -2.041,8.318 -8.315,8.318 -7.937,0 -17.274,-4.355 -17.274,-17.279 0,-10.108 0.642,-21.112 0.642,-26.869 0,-4.993 -3.974,-8.959 -8.961,-8.959 -4.995,0 -8.962,3.966 -8.962,8.959 0,5.757 0.642,16.636 0.642,23.032 V 42.87 c 0,4.605 3.707,8.318 8.32,8.318 4.6,0 8.319,-3.713 8.319,-8.318 6.139,6.66 14.587,9.596 21.755,9.596 19.453,0 21.754,-14.845 21.754,-20.47 0,-10.242 -1.28,-15.357 -1.28,-30.713 0,-2.439 2.049,-4.482 4.485,-4.482 1.914,0 3.583,0.765 4.863,2.174 1.79,1.924 4.601,1.793 6.777,0 2.173,-1.789 2.049,-4.478 0.515,-7.422 -2.432,-4.479 -6.658,-9.47 -16.64,-9.47 C 8.069,-17.917 0,-9.852 0,0" />
      </g>
      <g
         transform="matrix(0.35277777,0,0,-0.35277777,152.12569,286.64318)"
         id="g52"
         style="stroke-width:1.81891179;fill:#ffffff">
        <path
           inkscape:connector-curvature="0"
           id="path54"
           style="fill:#ffffff;fill-opacity:1;fill-rule:nonzero;stroke:none;stroke-width:1.81891179"
           d="m 0,0 c 1.021,1.54 2.563,2.3 4.226,2.3 3.069,0 5.369,-2.557 5.369,-5.115 0,-8.959 -12.286,-18.427 -29.428,-18.427 -21.758,0 -37.114,14.845 -37.114,33.273 0,23.417 14.328,37.11 34.555,37.11 16.635,0 26.869,-9.081 26.869,-23.032 0,-10.369 -8.443,-22.653 -30.716,-22.653 -4.473,0 -8.567,0.253 -11.637,0.638 2.56,-7.676 9.078,-11.9 18.043,-11.9 C -8.962,-7.806 -3.707,-5.245 0,0 m -38.904,15.487 c 2.308,-0.388 5.892,-0.767 10.106,-0.767 9.735,0 14.084,5.497 14.084,11.389 0,4.22 -3.456,7.676 -7.678,7.676 -8.32,0 -15.484,-5.503 -16.512,-18.298" />
      </g>
    </g>
  </g>
</svg>
