<?xml version="1.0" encoding="UTF-8" standalone="no"?>
<!-- Created with Inkscape (http://www.inkscape.org/) -->

<svg
   xmlns:dc="http://purl.org/dc/elements/1.1/"
   xmlns:cc="http://creativecommons.org/ns#"
   xmlns:rdf="http://www.w3.org/1999/02/22-rdf-syntax-ns#"
   xmlns:svg="http://www.w3.org/2000/svg"
   xmlns="http://www.w3.org/2000/svg"
   xmlns:sodipodi="http://sodipodi.sourceforge.net/DTD/sodipodi-0.dtd"
   xmlns:inkscape="http://www.inkscape.org/namespaces/inkscape"
   width="514"
   height="100"
   viewBox="0 0 135.99583 26.458333"
   version="1.1"
   id="svg6641"
   inkscape:version="0.92.3 (2405546, 2018-03-11)"
   sodipodi:docname="ok.svg">
  <defs
     id="defs6635">
    <clipPath
       clipPathUnits="userSpaceOnUse"
       id="clipPath1508">
      <path
         d="M 0,0 H 1000 V 852 H 0 Z"
         id="path1506"
         inkscape:connector-curvature="0" />
    </clipPath>
  </defs>
  <sodipodi:namedview
     id="base"
     pagecolor="#ffffff"
     bordercolor="#666666"
     borderopacity="1.0"
     inkscape:pageopacity="0.0"
     inkscape:pageshadow="2"
     inkscape:zoom="1.979899"
     inkscape:cx="165.604"
     inkscape:cy="2.2272201"
     inkscape:document-units="mm"
     inkscape:current-layer="layer1"
     showgrid="false"
     units="px"
     inkscape:window-width="1920"
     inkscape:window-height="1031"
     inkscape:window-x="0"
     inkscape:window-y="0"
     inkscape:window-maximized="1" />
  <metadata
     id="metadata6638">
    <rdf:RDF>
      <cc:Work
         rdf:about="">
        <dc:format>image/svg+xml</dc:format>
        <dc:type
           rdf:resource="http://purl.org/dc/dcmitype/StillImage" />
        <dc:title></dc:title>
      </cc:Work>
    </rdf:RDF>
  </metadata>
  <g
     inkscape:label="Layer 1"
     inkscape:groupmode="layer"
     id="layer1"
     transform="translate(0,-270.54167)">
    <g
       transform="matrix(0.16117413,0,0,-0.16117413,-16.379312,304.33652)"
       id="g1502"
       style="stroke-width:2.1887989">
      <g
         id="g1504"
         clip-path="url(#clipPath1508)"
         style="stroke-width:2.1887989">
        <g
           id="g1510"
           transform="translate(879.6933,157.0001)"
           style="stroke-width:2.1887989">
          <path
             d="M 0,0 C 0,0 -12.726,-12.766 -14.268,-19.06 -16.002,-25.714 -14.845,-9.532 0,0 m 63.042,-19.781 c 0,0 -18.702,-24.631 -30.655,-30.923 1.349,7.012 4.048,16.362 10.027,26.069 0,0 3.276,7.012 -2.895,12.228 -6.167,5.395 -14.265,11.328 -14.457,8.45 v -3.417 c 0,0 -34.897,-53.94 -34.897,-43.512 v 0.72 c 0,39.018 46.851,53.22 46.851,53.22 0,0 -2.895,3.958 -7.329,7.912 -4.625,3.775 -11.565,5.036 -11.565,5.036 -20.052,0 -43.572,-35.962 -43.572,-56.456 0,-23.377 23.52,-20.86 23.52,-20.86 0,0 8.87,-0.717 24.1,38.658 -1.93,-6.833 -4.821,-15.461 -9.447,-25.352 0,0 -1.349,-5.033 6.168,-9.349 l 12.534,-4.316 c 0,0 23.132,19.24 31.617,31.464 0,0 5.783,9.891 0,10.428 M -85.02,-104.465 c 0,0 11.954,14.745 15.426,25.531 3.084,10.97 0.577,-16.54 -15.426,-25.531 m -9.639,0 c -4.049,0 -8.29,1.979 -3.468,8.27 2.311,3.776 12.915,10.249 24.484,17.261 -6.171,-14.024 -13.496,-25.531 -21.016,-25.531 m 78.852,85.046 c 0,0 -12.531,-17.261 -23.715,-26.251 5.594,13.486 13.111,32.543 17.737,42.254 0,0 2.506,6.65 -2.699,11.507 0,0 -8.482,7.37 -18.122,7.37 0,0 1.93,-5.753 -8.867,-35.242 0,0 -13.111,-36.676 -18.317,-50.162 -14.457,-8.811 -28.337,-16.003 -33.159,-20.498 -3.856,-3.058 -15.999,-21.036 23.328,-21.036 0,0 13.688,-1.437 33.547,50.704 v 0.179 c 0,0 22.747,19.419 30.844,31.285 0,0 5.398,9.711 -0.577,9.89 m -18.509,47.287 c 1.737,5.033 2.122,15.824 2.122,15.824 3.469,-8.271 -4.241,-21.577 -2.122,-15.824 m 3.279,-8.449 c 7.133,-3.958 13.881,-3.958 13.881,-3.958 0,0 0.965,10.249 4.241,19.24 0,0 0.769,4.495 -9.255,9.528 -10.604,5.395 -13.303,3.775 -13.303,3.775 0,0 2.699,-13.844 -2.504,-21.035 0,0 -0.58,-3.237 6.94,-7.55 m -62.269,-57.357 c 1.157,2.158 13.88,34.701 13.88,34.701 -2.696,-18.698 -15.034,-36.859 -13.88,-34.701 m -37.785,4.854 v -0.179 h -0.192 c -0.193,-0.542 -0.193,-0.542 0,0 l 0.192,0.179 c 2.699,4.495 12.531,29.847 12.531,29.847 -1.927,-14.744 -10.604,-26.431 -12.531,-29.847 m 84.828,13.303 c 0,0 -17.737,-23.552 -29.114,-30.205 1.93,8.27 5.786,21.935 13.688,41.354 0,0 4.629,12.227 -1.349,16.544 0,0 -8.483,7.549 -18.314,7.549 0,0 -6.941,0 -23.905,-34.521 1.35,3.416 2.699,6.653 4.241,10.428 0,0 4.626,12.227 -1.349,16.544 0,0 -8.482,7.549 -18.317,7.549 0,0 5.398,-3.774 -5.203,-27.868 l -13.111,-32.184 c 0,0 2.315,-10.97 22.558,-16.541 0,0 33.159,71.198 36.051,67.244 -0.581,-3.954 -2.315,-10.069 -5.979,-18.519 l -13.492,-32.184 c 0,0 2.311,-10.97 22.554,-16.541 v 0.538 l 0.577,-0.72 c 0,0 22.751,19.598 30.464,31.646 0,0 5.59,9.708 0,9.887 m -99.67,40.996 c 0,0 0,11.149 3.468,14.024 z m 9.252,16.902 c -9.252,4.495 -11.951,2.875 -11.951,2.875 0,0 2.699,-12.765 -1.542,-19.777 0,0 -1.349,-3.058 5.975,-7.37 6.168,-2.7 13.881,-2.7 13.881,-2.7 0,0 0,10.07 2.891,17.082 0,0 1.734,4.137 -9.254,9.89 m -13.493,-80.912 8.867,28.23 c -0.577,-11.507 -8.867,-28.23 -8.867,-28.23 m 28.918,19.781 c 0,0 -16.775,-21.219 -27.376,-27.152 1.542,7.371 6.167,19.957 11.951,38.476 0,0 4.821,11.507 0,15.823 0,0 -9.252,7.012 -18.122,7.012 0,0 6.171,-4.133 -4.626,-27.327 l -12.146,-29.668 c 0,0 1.542,-9.89 21.401,-15.644 0,0 21.398,18.699 28.918,29.847 0,0 6.168,8.633 0,8.633 m -75.573,-14.565 13.688,36.138 c 0,-10.428 -13.688,-36.138 -13.688,-36.138 m -35.666,7.012 18.895,49.986 c -0.385,-12.769 -18.895,-49.986 -18.895,-49.986 m 80.587,9.89 c 0,0 -16.58,-22.656 -27.761,-29.489 1.927,8.45 5.783,21.398 13.304,40.276 0,0 4.241,11.507 -1.35,15.823 0,0 -8.29,7.191 -17.929,7.191 0,0 -8.29,-1.079 -24.485,-34.522 l 21.206,51.604 c 0,0 3.856,6.112 0,10.607 -4.049,4.675 -22.555,11.866 -22.555,11.866 0,0 5.01,-8.808 -13.304,-54.479 -5.59,-14.382 -13.108,-33.083 -16.002,-41.533 0,0 -3.084,-7.732 6.363,-12.228 9.447,-4.312 14.46,-5.571 14.46,-5.571 0,0 32.387,69.044 35.279,65.445 -0.578,-3.954 -2.504,-10.067 -5.591,-18.158 l -13.108,-31.284 c 0,0 1.927,-10.611 21.978,-16.003 0,0 21.978,18.699 29.495,30.923 0,0 5.398,9.353 0,9.532 m -105.453,-27.331 c 0,0 3.857,22.477 10.989,35.422 z m -32.772,14.203 c -0.387,7.553 7.903,26.61 7.903,26.61 z m 63.428,13.487 c 0,0 -16.195,-22.294 -27.568,-29.306 2.119,8.27 5.782,21.215 13.3,39.734 3.664,10.79 0.772,21.756 -19.279,23.555 0,0 2.891,-1.799 0.58,-12.048 0,0 -24.1,-42.254 -32.968,-52.141 1.736,8.449 5.785,21.756 13.109,40.634 0,0 4.628,11.865 -1.155,16.002 0,0 -8.29,7.553 -18.123,7.553 0,0 5.59,-3.957 -4.241,-26.972 l -13.302,-31.643 c 0,0 2.12,-10.611 21.978,-16.182 0,0 5.398,-4.316 21.591,29.485 l -5.204,-13.303 c 0,0 2.313,-10.611 21.784,-16.182 0,0 22.17,19.237 29.883,30.923 0,0 5.398,9.711 -0.385,9.891 m -123.574,54.657 c 0,-17.799 -10.604,-35.059 -10.604,-35.059 4.435,7.553 10.604,35.059 10.604,35.059 m 30.46,-32.002 c 4.627,1.617 0.579,-0.362 0.579,-0.362 0,0 -11.76,-7.549 -20.822,-15.999 0,0 12.532,12.583 20.243,16.361 m 9.061,-56.998 c 0,0 -28.918,-10.428 -35.28,24.094 9.64,12.227 22.941,23.193 42.606,26.43 0,0 -10.218,9.89 -16.579,8.991 0,0 -22.557,-12.228 -35.088,-39.737 0.578,2.337 1.156,5.215 2.313,7.373 l 21.399,51.604 c 0,0 4.049,6.47 0,10.965 -4.048,4.496 -22.748,11.87 -22.748,11.87 0,0 5.012,-8.812 -13.11,-54.661 -5.398,-14.565 -13.495,-33.443 -16.194,-41.534 0,0 -3.084,-8.091 6.361,-12.407 9.447,-4.495 14.461,-5.933 14.461,-5.933 0,0 0,1.617 0.577,4.675 0,0.538 2.699,11.328 10.604,23.552 -2.699,-3.054 14.459,-44.95 36.244,-25.71 0,0 8.482,11.328 4.434,10.428 M -467.488,0 c 0,0 -12.724,-12.766 -14.266,-19.06 -1.736,-6.654 -0.579,9.528 14.266,19.06 m 63.042,-19.781 c 0,0 -18.701,-24.631 -30.654,-30.923 1.35,7.012 4.049,16.362 10.024,26.069 0,0 3.278,7.012 -2.891,12.228 -6.169,5.395 -14.267,11.328 -14.459,8.45 v -3.417 c 0,0 -34.895,-53.94 -34.895,-43.512 v 0.72 c 0,39.018 46.849,53.22 46.849,53.22 0,0 -2.894,3.958 -7.327,7.912 -4.627,3.775 -11.567,5.036 -11.567,5.036 -20.05,0 -43.571,-35.962 -43.571,-56.456 0,-23.377 23.521,-20.86 23.521,-20.86 0,0 8.869,-0.717 24.098,38.658 -1.928,-6.833 -4.819,-15.461 -9.447,-25.352 0,0 -1.349,-5.033 6.169,-9.349 l 12.532,-4.316 c 0,0 23.134,19.24 31.618,31.464 0,0 5.783,9.891 0,10.428 m -100.249,-7.012 c -1.735,-5.212 9.447,35.242 14.845,40.638 0,0 -13.302,-35.601 -14.845,-40.638 m 57.258,54.12 c 0.193,-1.437 -15.23,-1.437 -33.16,-1.617 l 0.386,0.538 c 0,0 3.856,6.295 0,10.432 -3.856,4.492 -22.556,11.507 -22.556,11.507 0,0 2.507,-4.316 -2.313,-22.656 -12.146,-0.179 -22.364,-0.541 -25.642,-1.617 -7.519,-2.52 -6.361,-6.832 -6.361,-6.832 0,-7.733 8.097,-6.833 9.254,-5.757 -2.122,2.699 7.517,4.495 20.242,5.757 -1.928,-6.295 -4.627,-13.666 -8.29,-22.477 -5.398,-14.386 -13.109,-32.905 -16.001,-40.996 0,0 -2.893,-7.911 6.362,-12.403 9.447,-4.137 14.651,-5.575 14.651,-5.575 0,0 21.593,18.878 29.305,30.564 0,0 5.398,9.532 -0.193,9.711 0,0 -17.158,-23.376 -28.147,-29.667 1.156,6.653 3.47,16.182 8.674,28.768 l 18.123,43.871 c 16.58,1.258 31.618,1.437 31.618,1.437 0,0 4.241,0 6.169,4.316 1.542,2.158 -2.121,4.496 -2.121,2.696 m -98.9,-68.143 11.568,31.646 c -0.386,-8.632 -11.568,-31.646 -11.568,-31.646 m -22.556,57.898 c 0.579,5.391 4.627,1.075 4.627,1.075 0.964,-1.617 1.542,-3.234 1.928,-5.033 -3.277,1.079 -6.363,1.799 -6.555,3.958 m 55.523,-36.68 c 0,0 -17.929,-23.376 -29.689,-30.209 1.929,8.632 5.783,22.297 13.496,41.354 0,0 1.926,5.754 -0.194,8.27 0,0 -7.325,6.833 -17.929,9.353 -3.47,1.079 -6.362,1.975 -8.29,2.337 -1.736,7.912 -7.132,11.325 -8.868,11.687 -4.241,0.72 -8.482,0.9 -8.676,-7.192 0,-4.857 5.592,-7.911 11.375,-10.428 -2.121,-15.285 -15.809,-33.263 -15.809,-33.263 l 0.193,-10.249 c 15.616,17.799 21.206,31.285 22.171,40.634 3.084,-1.258 5.205,-2.337 5.205,-3.954 -0.771,-2.699 -2.121,-6.474 -3.855,-10.79 l -13.496,-32.723 c 0,0 2.313,-10.79 22.557,-16.543 0,0 23.52,19.239 31.809,31.646 0,0 5.591,9.529 0,10.07 m -85.786,-10.969 c 14.459,18.16 10.024,37.4 10.024,37.4 6.363,-23.377 -10.024,-37.4 -10.024,-37.4 m -50.125,-34.164 c -5.398,-14.561 -3.663,-24.989 -3.663,-24.989 -5.978,14.203 9.06,39.375 3.663,24.989 m 69.983,76.056 c -7.713,6.832 -20.436,9.711 -33.161,-24.273 2.699,12.948 0,17.623 -2.699,20.677 -4.241,4.495 -9.061,7.374 -20.05,7.374 10.989,-7.191 -16.579,-70.664 -19.471,-79.472 0,0 -10.989,-23.376 1.927,-30.567 10.025,-4.495 12.532,-5.933 15.231,-5.933 -5.592,7.37 -1.157,24.273 5.205,41.354 0.964,1.979 37.209,71.56 39.136,64.907 1.928,-5.575 -3.471,-42.251 -27.761,-48.904 -4.82,-3.958 -2.699,-13.486 11.373,-13.486 0,0 25.642,5.395 35.86,49.445 0,0 2.892,9.349 -5.59,18.878 m -89.646,-22.115 c 0,0 -32.196,-49.445 -32.196,-39.555 v 0.721 c 0,26.069 22.172,40.092 34.895,45.846 -0.963,-2.337 -1.926,-4.495 -2.699,-7.012 m -5.012,19.06 c 0,0 -11.952,-2.878 -21.014,-14.203 -9.061,-11.328 4.627,13.662 21.014,14.203 m 28.534,-7.191 c 0,0 -14.267,-35.962 -17.158,-44.95 -3.086,-8.99 11.952,41.534 17.158,44.95 m 13.109,-21.935 c 0,0 -17.158,-23.015 -27.955,-29.13 1.157,6.294 3.47,16.002 8.29,28.23 l 20.822,50.162 c 0,0 3.663,6.116 0,10.249 -3.664,4.496 -22.364,11.328 -22.364,11.328 0,0 6.94,-4.495 -8.868,-44.05 -0.579,0.359 -1.35,0.9 -1.929,1.437 -4.241,3.596 -10.796,4.675 -10.796,4.675 -18.7,0 -40.678,-33.622 -40.678,-52.861 0,-21.577 21.978,-19.419 21.978,-19.419 0,0 6.169,-0.359 16.773,22.656 h -0.194 c 0,0 -4.241,-13.486 1.544,-18.699 9.253,-4.316 14.459,-4.136 14.459,-4.136 0,0 21.207,18.519 28.918,29.847 0,0 5.204,9.349 0,9.711 m -91.38,-13.307 c -8.674,4.495 -7.711,16.003 -7.711,16.003 2.699,14.023 12.917,9.169 12.917,9.169 5.591,-5.216 2.121,-15.464 -5.206,-25.172 m -10.602,46.387 c 0,0 -10.411,-3.233 -15.617,-5.932 -5.204,-3.238 -15.23,-10.429 -15.23,-10.429 0,0 10.219,14.386 30.847,16.361 m 30.846,-40.096 c -4.049,-6.832 -11.375,-8.27 -11.375,-8.27 5.398,9.532 7.518,18.161 7.518,18.161 0,0 3.857,16.002 -13.109,16.002 -16.772,0 -18.121,-14.203 -18.121,-14.203 0,-13.486 5.59,-20.318 10.41,-23.555 -3.278,-4.134 -7.327,-8.091 -11.181,-10.608 -17.929,-11.507 -21.207,1.799 -20.629,10.249 0,38.117 46.269,42.071 46.269,42.071 0,0 -2.699,4.317 -7.327,8.091 -4.241,3.958 -11.181,5.037 -11.181,5.037 -53.016,-1.438 -60.727,-73.718 -19.857,-76.056 15.23,0 25.834,8.629 32.774,17.979 10.026,0 15.809,5.036 15.809,5.036 5.783,6.832 0,10.066 0,10.066"
             style="fill:#ffffff;fill-opacity:1;fill-rule:nonzero;stroke:none;stroke-width:2.1887989"
             id="path1512"
             inkscape:connector-curvature="0" />
        </g>
      </g>
    </g>
  </g>
</svg>
