<?xml version="1.0" encoding="UTF-8" standalone="no"?>
<!-- Created with Inkscape (http://www.inkscape.org/) -->

<svg
   xmlns:dc="http://purl.org/dc/elements/1.1/"
   xmlns:cc="http://creativecommons.org/ns#"
   xmlns:rdf="http://www.w3.org/1999/02/22-rdf-syntax-ns#"
   xmlns:svg="http://www.w3.org/2000/svg"
   xmlns="http://www.w3.org/2000/svg"
   xmlns:sodipodi="http://sodipodi.sourceforge.net/DTD/sodipodi-0.dtd"
   xmlns:inkscape="http://www.inkscape.org/namespaces/inkscape"
   width="435"
   height="100"
   viewBox="0 0 115.09375 26.458333"
   version="1.1"
   id="svg6641"
   inkscape:version="0.92.3 (2405546, 2018-03-11)"
   sodipodi:docname="onaplus.svg">
  <defs
     id="defs6635" />
  <sodipodi:namedview
     id="base"
     pagecolor="#ffffff"
     bordercolor="#666666"
     borderopacity="1.0"
     inkscape:pageopacity="0.0"
     inkscape:pageshadow="2"
     inkscape:zoom="1.979899"
     inkscape:cx="245.91113"
     inkscape:cy="2.2272201"
     inkscape:document-units="mm"
     inkscape:current-layer="layer1"
     showgrid="false"
     units="px"
     inkscape:window-width="1920"
     inkscape:window-height="1031"
     inkscape:window-x="0"
     inkscape:window-y="0"
     inkscape:window-maximized="1" />
  <metadata
     id="metadata6638">
    <rdf:RDF>
      <cc:Work
         rdf:about="">
        <dc:format>image/svg+xml</dc:format>
        <dc:type
           rdf:resource="http://purl.org/dc/dcmitype/StillImage" />
        <dc:title></dc:title>
      </cc:Work>
    </rdf:RDF>
  </metadata>
  <g
     inkscape:label="Layer 1"
     inkscape:groupmode="layer"
     id="layer1"
     transform="translate(0,-270.54167)">
    <g
       id="g6999"
       transform="matrix(1.9413339,0,0,1.9413339,-59.999285,-270.49438)"
       style="stroke-width:0.51510972;fill:#ffffff">
      <path
         d="m 90.058165,286.28648 c 0,-1.7713 -1.176161,-2.45392 -3.049411,-3.12173 -1.815041,-0.6537 -2.700514,-1.40864 -2.700514,-2.45392 0,-0.98743 0.885473,-1.90183 2.032706,-1.90183 1.17616,0 2.424642,0.95815 2.424642,2.33751 0,0.0293 0.1016,0.0293 0.1016,0 v -2.41018 c 0,-0.0434 -0.1016,-0.0434 -0.1016,0 -0.02857,0.15946 -0.173919,0.34819 -0.595135,0.34819 -0.581025,0 -1.04493,-0.39158 -1.843972,-0.39158 -1.466495,0 -2.714977,1.40794 -2.714977,3.00531 0,1.71345 1.074209,2.45357 2.439459,2.94781 2.22109,0.8128 3.19405,1.30669 3.19405,2.70017 0,0.94438 -0.987425,2.03341 -2.657123,2.03341 -1.887712,0 -3.151011,-1.97485 -3.151011,-3.13655 0,-0.0437 -0.08714,-0.0437 -0.08714,0 v 3.20922 c 0,0.0289 0.08714,0.0289 0.08714,0 0.05821,-0.27623 0.391936,-0.56691 0.79869,-0.56691 0.653696,0 1.292225,0.59584 2.366785,0.59584 2.27965,0 3.455811,-1.90253 3.455811,-3.19476"
         style="fill:#ffffff;fill-opacity:1;fill-rule:nonzero;stroke:none;stroke-width:0.18171923"
         id="path912"
         inkscape:connector-curvature="0" />
      <path
         d="m 83.251354,279.0556 c 0.02928,0 0.02928,-0.11607 0,-0.11607 h -2.816577 c -0.02893,0 -0.02893,0.11607 0,0.11607 h 1.248481 c 0.05821,0 0.08678,0.0293 0.08678,0.0578 v 7.07143 c 0,1.81504 -0.9144,3.06388 -3.005314,3.06388 -1.655234,0 -2.497667,-0.95815 -2.497667,-3.00567 v -7.12964 c 0,-0.0286 0.02928,-0.0578 0.08714,-0.0578 h 1.277763 c 0.02928,0 0.02928,-0.11607 0,-0.11607 h -4.326467 c -0.02928,0 -0.02928,0.11607 0,0.11607 h 1.277409 c 0.05821,0 0.08678,0.0293 0.08678,0.0578 v 7.12964 c 0,2.16359 1.553985,3.23815 3.732035,3.23815 2.424642,0 3.48474,-1.29258 3.48474,-3.29636 v -7.07143 c 0,-0.0286 0.02893,-0.0578 0.08749,-0.0578 z"
         style="fill:#ffffff;fill-opacity:1;fill-rule:nonzero;stroke:none;stroke-width:0.18171923"
         id="path916"
         inkscape:connector-curvature="0" />
      <path
         d="m 73.46798,289.19069 v -3.04941 c 0,-0.0293 -0.116065,-0.0293 -0.116065,0 0,1.48131 -0.682625,2.97674 -2.889602,2.97674 H 68.70548 c -0.05786,0 -0.08713,-0.0141 -0.08713,-0.0579 v -9.94657 c 0,-0.0289 0.02928,-0.0578 0.08713,-0.0578 h 1.27776 c 0.02928,0 0.02928,-0.11677 0,-0.11677 h -4.312708 c -0.02893,0 -0.02893,0.11677 0,0.11677 h 1.278467 c 0.04339,0 0.07232,0.0289 0.07232,0.0578 v 9.94657 c 0,0.0437 -0.02893,0.0579 -0.07232,0.0579 h -1.278467 c -0.02893,0 -0.02893,0.11571 0,0.11571 h 7.753704 c 0.02963,0 0.04374,-0.0138 0.04374,-0.043"
         style="fill:#ffffff;fill-opacity:1;fill-rule:nonzero;stroke:none;stroke-width:0.18171923"
         id="path920"
         inkscape:connector-curvature="0" />
      <path
         d="m 63.970886,282.17719 c 0,2.09161 -0.90029,2.90406 -2.236259,2.90406 h -1.539171 v -5.96794 c 0,-0.0286 0.02893,-0.0579 0.08714,-0.0579 h 1.248833 c 1.350434,0 2.439459,1.01636 2.439459,3.12174 m 1.568095,0 c 0,-1.7713 -1.408642,-3.2378 -4.007554,-3.2378 h -4.283428 c -0.02928,0 -0.02928,0.11606 0,0.11606 h 1.277407 c 0.04339,0 0.07303,0.0293 0.07303,0.0579 v 9.94692 c 0,0.0438 -0.02963,0.0575 -0.07303,0.0575 h -1.277407 c -0.02928,0 -0.02928,0.11642 0,0.11642 h 4.312355 c 0.02893,0 0.02893,-0.11642 0,-0.11642 h -1.27776 c -0.05821,0 -0.08714,-0.0137 -0.08714,-0.0575 v -3.86256 h 1.539171 c 2.265186,0 3.804354,-1.26365 3.804354,-3.02048"
         style="fill:#ffffff;fill-opacity:1;fill-rule:nonzero;stroke:none;stroke-width:0.18171923"
         id="path924"
         inkscape:connector-curvature="0" />
      <path
         d="m 35.610868,291.00799 v 1.29222 c 0,0.0289 0.116064,0.0289 0.116064,0 v -1.29222 c 0,-0.0289 0.01447,-0.0434 0.04374,-0.0582 h 1.335617 c 0.02928,0 0.02928,-0.11606 0,-0.11606 h -1.292225 c -0.05821,0 -0.08714,-0.0145 -0.08714,-0.0579 v -1.29258 c 2.598914,-0.043 4.69018,-2.4391 4.69018,-5.38691 0,-2.9905 -2.119841,-5.40103 -4.762852,-5.40103 -2.758369,3e-5 -4.748036,2.51145 -4.748036,5.40106 0,2.96262 2.106083,5.35799 4.704644,5.38691 v 1.29258 c 0,0.0434 -0.02893,0.0579 -0.08714,0.0579 h -1.29186 c -0.02963,0 -0.02963,0.11606 0,0.11606 h 1.3208 c 0.02928,0.0148 0.05821,0.0293 0.05821,0.0582 m 2.61373,-6.91162 c 0,2.90442 -0.290688,4.02237 -0.972961,4.7191 -0.406752,0.42122 -0.943327,0.56657 -1.597377,0.56657 -0.638528,0 -1.161698,-0.14535 -1.581856,-0.56657 -0.683331,-0.69673 -0.973667,-1.81468 -0.973667,-4.7191 0,-2.54071 0.290336,-4.02202 0.973667,-4.73358 0.420158,-0.42086 0.943328,-0.55174 1.581856,-0.55174 0.65405,0 1.190625,0.13088 1.597377,0.55174 0.682273,0.71156 0.972961,2.19287 0.972961,4.73358"
         style="fill:#ffffff;fill-opacity:1;fill-rule:nonzero;stroke:none;stroke-width:0.18171923"
         id="path928"
         inkscape:connector-curvature="0" />
      <path
         d="m 48.408693,279.11589 c 0,-0.043 0.02928,-0.0575 0.08714,-0.0575 h 1.292225 c 0.02893,0 0.02893,-0.11606 0,-0.11606 h -2.874786 c -0.02928,0 -0.02928,0.11606 0,0.11606 h 1.292225 c 0.05786,0 0.08714,0.0145 0.08714,0.0575 v 6.89715 l -4.442883,-6.81002 c -0.13088,-0.20285 -0.218016,-0.2607 -0.319616,-0.2607 h -3.542956 c -0.02928,0 -0.02928,0.11606 0,0.11606 h 1.277762 c 0.07267,0 0.08714,0.0145 0.08714,0.0575 v 9.94621 c 0,0.0438 -0.01446,0.0582 -0.08714,0.0582 h -1.277762 c -0.02928,0 -0.02928,0.11606 0,0.11606 h 2.875139 c 0.02822,0 0.02822,-0.11606 0,-0.11606 h -1.292577 c -0.05821,0 -0.08714,-0.0145 -0.08714,-0.0582 v -9.88801 l 6.66997,10.06228 h 0.256116 z"
         style="fill:#ffffff;fill-opacity:1;fill-rule:nonzero;stroke:none;stroke-width:0.18171923"
         id="path932"
         inkscape:connector-curvature="0" />
      <path
         d="m 58.57723,289.23651 c 0.02928,0 0.02928,-0.11571 0,-0.11571 h -1.234016 c -0.05821,0 -0.1016,-0.0293 -0.116064,-0.0582 l -3.934531,-10.3244 c -0.01482,-0.0434 -0.116416,-0.0434 -0.131233,0 l -3.542947,9.77195 c -0.2032,0.56691 -0.217664,0.61065 -0.348545,0.61065 h -1.103488 c -0.02893,0 -0.02893,0.11571 0,0.11571 h 2.759427 c 0.02893,0 0.02893,-0.11571 0,-0.11571 h -1.307394 c -0.08714,0 -0.07232,-0.0871 0.116769,-0.61065 l 1.015647,-2.78765 h 3.151011 l 1.176162,3.3401 c 0,0.0289 -0.01447,0.0582 -0.07267,0.0582 h -1.335616 c -0.04375,0 -0.04375,0.11571 0,0.11571 z m -4.718755,-3.63043 H 50.7946 l 1.568097,-4.34128 z"
         style="fill:#ffffff;fill-opacity:1;fill-rule:nonzero;stroke:none;stroke-width:0.18171923"
         id="path936"
         inkscape:connector-curvature="0" />
    </g>
  </g>
</svg>
