<?xml version="1.0" encoding="UTF-8" standalone="no"?>
<!-- Created with Inkscape (http://www.inkscape.org/) -->

<svg
   xmlns:dc="http://purl.org/dc/elements/1.1/"
   xmlns:cc="http://creativecommons.org/ns#"
   xmlns:rdf="http://www.w3.org/1999/02/22-rdf-syntax-ns#"
   xmlns:svg="http://www.w3.org/2000/svg"
   xmlns="http://www.w3.org/2000/svg"
   xmlns:sodipodi="http://sodipodi.sourceforge.net/DTD/sodipodi-0.dtd"
   xmlns:inkscape="http://www.inkscape.org/namespaces/inkscape"
   width="920"
   height="100"
   viewBox="0 0 243.41666 26.458333"
   version="1.1"
   id="svg6641"
   inkscape:version="0.92.3 (2405546, 2018-03-11)"
   sodipodi:docname="deloindom.svg">
  <defs
     id="defs6635" />
  <sodipodi:namedview
     id="base"
     pagecolor="#ffffff"
     bordercolor="#666666"
     borderopacity="1.0"
     inkscape:pageopacity="0.0"
     inkscape:pageshadow="2"
     inkscape:zoom="0.98994949"
     inkscape:cx="427.46893"
     inkscape:cy="-9.3626054"
     inkscape:document-units="mm"
     inkscape:current-layer="layer1"
     showgrid="false"
     units="px"
     inkscape:window-width="1920"
     inkscape:window-height="1031"
     inkscape:window-x="0"
     inkscape:window-y="0"
     inkscape:window-maximized="1" />
  <metadata
     id="metadata6638">
    <rdf:RDF>
      <cc:Work
         rdf:about="">
        <dc:format>image/svg+xml</dc:format>
        <dc:type
           rdf:resource="http://purl.org/dc/dcmitype/StillImage" />
        <dc:title></dc:title>
      </cc:Work>
    </rdf:RDF>
  </metadata>
  <g
     inkscape:label="Layer 1"
     inkscape:groupmode="layer"
     id="layer1"
     transform="translate(0,-270.54167)">
    <g
       id="g6659"
       transform="matrix(3.2792337,0,0,3.2792337,-211.19022,-639.34324)"
       style="stroke-width:0.30494928;fill:#ffffff">
      <path
         d="m 114.20642,285.53721 c 2.22074,-0.13652 3.40501,-1.8676 3.40501,-4.06506 0,-2.22073 -1.11584,-3.88338 -3.40501,-3.94053 v 1.30987 c 1.264,0.11359 1.83374,1.3208 1.83374,2.68746 0,1.3776 -0.56974,2.5848 -1.83374,2.69875 z m -0.36407,-1.29822 c -1.28693,-0.10266 -1.86796,-1.30987 -1.86796,-2.71004 0,-1.36666 0.56939,-2.5968 1.86796,-2.68746 v -1.30987 c -2.27788,0.11395 -3.45087,1.87925 -3.45087,4.07671 0,2.28917 1.11619,3.89466 3.45087,3.92888 z m -26.948693,1.29822 c 2.22073,-0.13652 3.40501,-1.8676 3.40501,-4.06506 0,-2.22073 -1.11584,-3.88338 -3.40501,-3.94053 v 1.30987 c 1.264,0.11359 1.83338,1.3208 1.83338,2.68746 0,1.3776 -0.56938,2.5848 -1.83338,2.69875 z m -0.36442,-1.29822 c -1.28693,-0.10266 -1.86761,-1.30987 -1.86761,-2.71004 0,-1.36666 0.56939,-2.5968 1.86761,-2.68746 v -1.30987 c -2.27753,0.11395 -3.45052,1.87925 -3.45052,4.07671 0,2.28917 1.11619,3.89466 3.45052,3.92888 z m 32.653823,-6.5592 h -0.34185 v 7.70961 h 1.41252 v -4.2478 z m 1.71943,0 h -1.34373 l 2.41441,7.70961 h 1.4351 z m 5.09059,0 h -1.26401 l -1.71979,5.31813 0.67204,2.03799 z m -0.70591,3.48439 v 4.22522 h 1.50319 v -7.70961 h -0.42122 z m -20.41878,4.22522 h 0.53517 c 2.64195,0 4.16806,-1.33209 4.16806,-3.95182 0,-2.34597 -1.41216,-3.75779 -4.03154,-3.75779 h -0.67169 v 1.27529 h 0.50095 c 1.86795,0 2.65359,1.09291 2.65359,2.51707 0,1.7646 -0.87701,2.6416 -2.67652,2.6416 h -0.47802 z m -0.36477,-7.70961 h -1.50319 v 7.70961 h 1.50319 z m -24.807333,0 h -1.50319 v 7.70961 h 1.50319 z m 0.36477,7.70961 h 2.528 v -1.27565 h -2.528 z m -6.36588,-7.70961 h -1.50318 v 7.70961 h 1.50318 z m 0.36407,1.27529 h 2.79012 v -1.27564 h -2.79012 z m 0,3.07481 h 2.38019 v -1.264 h -2.38019 z m 0,3.35951 h 2.83563 v -1.27565 h -2.83563 z m -7.78933,0 h 0.53551 c 2.64196,0 4.16807,-1.33209 4.16807,-3.95182 0,-2.34597 -1.41252,-3.75779 -4.03154,-3.75779 h -0.67204 v 1.27529 h 0.50129 c 1.86761,0 2.65325,1.09291 2.65325,2.51707 0,1.7646 -0.87701,2.6416 -2.67618,2.6416 h -0.47836 z m -0.36442,-7.70961 h -1.50319 v 7.70961 h 1.50319 z"
         style="fill:#ffffff;fill-opacity:1;fill-rule:nonzero;stroke:none;stroke-width:0.10757933"
         id="path802"
         inkscape:connector-curvature="0" />
      <path
         inkscape:connector-curvature="0"
         id="path804"
         style="fill:#ffffff;fill-opacity:1;fill-rule:nonzero;stroke:none;stroke-width:0.10757933"
         d="m 91.631357,285.39321 h 1.5046 v -7.71702 h -1.5046 z" />
      <path
         d="m 96.190977,280.48737 -1.41359,-2.28423 v 7.18961 h 1.41359 z m 0.41028,-2.81164 h -1.72332 l 4.77837,7.71702 h 1.447803 v -0.48966 z m 4.502853,6.53804 v -6.53804 h -1.413583 v 4.2538 z"
         style="fill:#ffffff;fill-opacity:1;fill-rule:nonzero;stroke:none;stroke-width:0.10757933"
         id="path808"
         inkscape:connector-curvature="0" />
      <path
         inkscape:connector-curvature="0"
         id="path810"
         style="fill:#ffffff;fill-opacity:1;fill-rule:nonzero;stroke:none;stroke-width:0.10757933"
         d="m 137.06561,285.3477 h 1.5053 v -7.71948 h -1.5053 z m -4.0252,0.15945 c 1.61925,0 2.85045,-0.75247 2.85045,-2.3943 0,-2.45145 -3.37503,-2.23485 -3.37503,-3.50061 0,-0.57009 0.3422,-0.84349 0.95779,-0.84349 0.54751,0 1.06045,0.14816 1.61925,0.42157 l 0.58138,-1.12889 c -0.64982,-0.399 -1.33421,-0.59267 -2.1777,-0.59267 -1.3342,0 -2.5654,0.63853 -2.5654,2.24614 0,2.42887 3.34081,2.18898 3.34081,3.56905 0,0.6156 -0.44485,0.91228 -1.16311,0.91228 -0.44485,0 -1.07174,-0.10266 -1.92687,-0.53587 l -0.58173,1.20827 c 0.76412,0.47907 1.51694,0.63852 2.44016,0.63852 m -5.05107,-0.15945 h 1.68734 v -1.74449 h -1.68734 z" />
    </g>
  </g>
</svg>
