<?xml version="1.0" encoding="UTF-8" standalone="no"?>
<!-- Created with Inkscape (http://www.inkscape.org/) -->

<svg
   xmlns:dc="http://purl.org/dc/elements/1.1/"
   xmlns:cc="http://creativecommons.org/ns#"
   xmlns:rdf="http://www.w3.org/1999/02/22-rdf-syntax-ns#"
   xmlns:svg="http://www.w3.org/2000/svg"
   xmlns="http://www.w3.org/2000/svg"
   xmlns:sodipodi="http://sodipodi.sourceforge.net/DTD/sodipodi-0.dtd"
   xmlns:inkscape="http://www.inkscape.org/namespaces/inkscape"
   width="254"
   height="100"
   viewBox="0 0 67.204165 26.458333"
   version="1.1"
   id="svg6641"
   inkscape:version="0.92.3 (2405546, 2018-03-11)"
   sodipodi:docname="micna.svg">
  <defs
     id="defs6635">
    <clipPath
       clipPathUnits="userSpaceOnUse"
       id="clipPath1508">
      <path
         d="M 0,0 H 1000 V 852 H 0 Z"
         id="path1506"
         inkscape:connector-curvature="0" />
    </clipPath>
    <clipPath
       clipPathUnits="userSpaceOnUse"
       id="clipPath1508-3">
      <path
         d="M 0,0 H 1000 V 852 H 0 Z"
         id="path1506-6"
         inkscape:connector-curvature="0" />
    </clipPath>
  </defs>
  <sodipodi:namedview
     id="base"
     pagecolor="#ffffff"
     bordercolor="#666666"
     borderopacity="1.0"
     inkscape:pageopacity="0.0"
     inkscape:pageshadow="2"
     inkscape:zoom="2.8"
     inkscape:cx="238.64238"
     inkscape:cy="7.7352098"
     inkscape:document-units="mm"
     inkscape:current-layer="layer1"
     showgrid="false"
     units="px"
     inkscape:window-width="1920"
     inkscape:window-height="1031"
     inkscape:window-x="0"
     inkscape:window-y="0"
     inkscape:window-maximized="1" />
  <metadata
     id="metadata6638">
    <rdf:RDF>
      <cc:Work
         rdf:about="">
        <dc:format>image/svg+xml</dc:format>
        <dc:type
           rdf:resource="http://purl.org/dc/dcmitype/StillImage" />
        <dc:title></dc:title>
      </cc:Work>
    </rdf:RDF>
  </metadata>
  <g
     inkscape:label="Layer 1"
     inkscape:groupmode="layer"
     id="layer1"
     transform="translate(0,-270.54167)">
    <g
       transform="matrix(0.35108547,0,0,-0.35108547,-40.39291,457.93146)"
       id="g1050"
       style="stroke-width:1.00482023;fill:#ffffff">
      <g
         transform="translate(169.0845,493.7291)"
         id="g22"
         style="stroke-width:1.00482023;fill:#ffffff">
        <path
           inkscape:connector-curvature="0"
           id="path24"
           style="fill:#ffffff;fill-opacity:1;fill-rule:nonzero;stroke:none;stroke-width:1.00482023"
           d="M 0,0 C -0.018,0.009 -0.051,0.018 -0.052,0.028 -0.054,0.067 -0.044,0.106 -0.039,0.149 -0.009,0.131 0.028,0.118 0.027,0.107 0.025,0.071 0.01,0.036 0,0 m -1.012,18.662 c -0.126,0.168 -0.166,0.327 -0.201,0.485 -0.019,0.082 0.054,0.177 0.127,0.184 0.105,0.011 0.193,-0.024 0.262,-0.143 -0.006,-0.184 -0.1,-0.326 -0.188,-0.526 M -2.53,14.809 c -0.306,-0.311 -0.642,-0.67 -0.685,-0.721 -0.211,-0.253 -0.447,-0.484 -0.498,-0.863 0.128,0.849 0.152,1.715 0.258,2.568 0.048,0.38 0.094,0.762 0.161,1.137 0.031,0.18 0.308,0.95 0.26,1.08 0.339,-0.911 0.679,-1.821 1.018,-2.732 -0.011,0.031 -0.252,-0.201 -0.514,-0.469 M -7.66,-3.789 c -0.14,-0.173 -0.123,-0.418 -0.2,-0.62 -0.078,-0.201 -0.112,-0.427 -0.18,-0.636 -0.038,-0.118 -0.042,-0.27 -0.224,-0.368 0.172,0.644 0.275,1.237 0.504,1.775 0.009,0.021 0.041,0.027 0.085,0.053 0.007,-0.076 0.039,-0.174 0.015,-0.204 m -0.269,0.248 c 0.006,-0.009 0.014,-0.017 0.016,-0.027 0.003,-0.015 0.003,-0.03 0,-0.044 -10e-4,-0.006 -0.013,-0.008 -0.02,-0.012 10e-4,0.028 0.003,0.056 0.004,0.083 m 7.389,36.132 c -0.173,-0.061 -0.358,-0.097 -0.607,-0.156 0.224,0.334 0.459,0.507 0.698,0.707 0.03,-0.211 -0.035,-0.369 -0.091,-0.551 m 13.646,-42.875 c -0.012,0.028 -0.026,0.055 -0.042,0.081 -0.076,0.133 -0.182,0.241 -0.266,0.368 -0.148,0.224 -0.227,0.502 -0.303,0.775 -0.644,2.301 -1.251,4.599 -2.027,6.839 C 9.654,0.131 9.029,2.258 8.122,4.582 7.203,6.934 6.036,9.541 5.147,11.91 5.038,12.202 4.92,12.506 4.711,12.698 4.447,12.941 4.188,13.15 4.412,13.568 L 4.407,13.56 c -0.069,0.031 -0.104,0.098 -0.074,0.176 0.431,1.183 0.988,2.299 1.328,3.53 0.074,0.27 0.2,0.524 0.295,0.777 C 6.911,15.56 7.82,12.813 8.307,10.142 8.53,8.92 8.987,7.237 9.233,6.021 9.487,4.767 9.819,3.142 9.356,1.998 9.396,1.988 9.432,1.969 9.463,1.942 c 0.144,0.183 0.271,0.329 0.323,0.615 0.627,-0.388 0.958,-1.708 1.353,-2.394 0.306,-0.534 0.374,-0.567 0.84,-0.867 -0.479,0.755 -0.355,0.41 -0.55,1.045 C 11.328,0.672 10.612,2.948 10.544,3.292 10.218,4.938 10.22,4.529 9.912,6.17 9.327,9.286 8.772,12.443 8.257,15.574 8.07,16.713 7.889,17.853 7.714,18.995 7.553,20.043 7.258,21.023 7.59,22.034 c 0.145,0.443 0.415,0.871 0.383,1.407 -0.007,0.125 -0.067,0.235 -0.127,0.335 -0.578,0.956 -1.363,1.631 -2.343,1.58 0,-0.183 0.187,-0.262 0.283,-0.403 C 5.934,24.736 5.841,24.4 5.699,24.177 5.367,23.653 5.185,23.107 4.943,22.511 4.787,22.123 4.584,21.78 4.384,21.424 l 1.178,3.101 C 5.505,24.533 5.418,24.592 5.361,24.601 5.357,24.354 4.64,22.62 4.52,22.422 c 0.091,0.502 0.251,0.981 0.35,1.481 0.087,0.431 0.26,1.473 -0.213,1.659 C 4.468,25.637 4.281,25.712 4.091,25.78 3.953,25.829 3.812,25.866 3.668,25.909 3.65,25.842 3.627,25.8 3.628,25.759 3.642,25.329 3.485,24.967 3.32,24.61 3.302,24.571 3.252,24.554 3.176,24.496 c 0.029,0.793 0.384,1.546 0.208,2.28 -0.152,0.163 -0.563,0.315 -0.783,0.356 -0.046,0.008 -0.086,0.051 -0.13,0.076 -0.114,0.068 -0.181,0.214 -0.17,0.369 0.073,1.001 -0.02,2.004 -0.015,3.006 0.002,0.409 0.025,0.804 0.089,1.204 0.063,0.388 0.051,0.729 0.43,0.801 0.691,0.133 1.513,0.111 2.12,-0.367 0.141,-0.111 0.277,-0.265 0.308,-0.469 0.017,-0.116 -0.067,-1.475 0.095,-0.703 0.025,0.118 0.179,0.59 0.17,0.693 -0.019,0.238 -0.111,0.462 -0.234,0.648 -0.241,0.365 -0.587,0.625 -0.926,0.833 -0.476,0.292 -0.972,0.431 -1.505,0.356 -0.087,-0.013 -0.181,0.011 -0.266,0.03 0.077,0.215 0.048,0.531 0.057,0.77 0.013,0.33 0.026,0.66 0.039,0.99 0.007,0.181 -0.005,0.424 0.085,0.582 0.103,0.182 0.348,0.321 0.498,0.448 0.184,0.158 0.37,0.312 0.556,0.466 0.083,0.069 0.534,0.34 0.546,0.449 0.005,0.055 -0.683,0.849 -0.749,0.818 C 3.087,37.886 2.56,37.631 2.031,37.379 1.663,37.204 1.292,37.034 0.922,36.862 0.726,36.771 0.527,36.688 0.332,36.594 0.221,36.541 0.116,36.467 -0.008,36.485 c 0.39,0.519 0.931,0.858 1.398,1.265 0.303,0.265 0.602,0.537 0.896,0.816 0.147,0.139 0.297,0.276 0.438,0.424 0.084,0.089 0.218,0.313 0.338,0.313 0.181,0.036 0.35,0.07 0.53,0.106 0.02,0.097 0.054,0.183 0.05,0.266 -0.006,0.115 -0.085,0.176 -0.167,0.223 -0.174,0.1 -0.365,0.15 -0.543,0.093 C 2.571,39.877 2.202,39.781 1.875,39.538 1.777,39.464 1.675,39.399 1.572,39.333 0.908,38.902 0.265,38.42 -0.352,37.893 -0.664,37.625 -0.97,37.345 -1.269,37.055 -1.542,36.79 -1.795,36.446 -2.077,36.207 c -0.165,-0.14 -0.198,-0.411 -0.152,-0.652 0.062,-0.316 0.292,-0.476 0.417,-0.732 0.015,-0.033 0.061,-0.055 0.095,-0.062 0.173,-0.034 0.342,-0.035 0.51,0.044 0.265,0.124 0.533,0.237 0.801,0.351 0.05,0.022 0.105,0.027 0.157,0.04 -0.074,-0.168 -0.167,-0.286 -0.271,-0.388 -0.607,-0.6 -1.233,-1.22 -1.838,-1.843 -0.312,-0.321 -0.622,-0.647 -0.927,-0.979 -0.241,-0.262 -0.632,-0.546 -0.658,-0.979 0.073,-0.124 0.142,-0.294 0.25,-0.408 0.071,-0.076 0.171,-0.093 0.184,-0.247 0.004,-0.049 0.081,-0.11 0.133,-0.129 0.273,-0.1 0.51,0.043 0.739,0.195 0.696,0.465 1.436,0.81 2.16,1.197 0.062,0.033 0.136,0.035 0.234,0.058 -0.043,-0.585 -0.093,-1.194 0.001,-1.775 0.079,-0.487 0.283,-0.967 0.627,-1.231 0.162,-0.125 0.357,-0.199 0.548,-0.172 0.114,0.016 0.214,0.09 0.324,0.13 0.075,0.028 0.081,0.039 0.101,-0.043 C 1.382,28.489 1.347,28.376 1.33,28.285 1.31,28.173 1.312,28.058 1.291,27.949 1.247,27.728 1.199,27.509 1.151,27.289 1.095,27.031 1.034,26.775 0.964,26.523 0.946,26.458 0.766,26.025 0.786,25.981 0.722,26.123 0.689,26.31 0.599,26.37 c -0.348,0.234 -0.357,0.553 -0.833,0.544 -0.925,-0.017 -1.92,0.017 -2.747,-0.574 0.162,-0.498 0.434,-1.122 0.058,-1.393 -0.217,-0.156 -0.635,-0.15 -0.882,-0.223 -0.133,-0.04 -1.301,-0.364 -0.987,-0.724 0.033,-0.039 0.074,-0.065 0.119,-0.074 0.212,-0.042 0.35,-0.261 0.464,-0.474 0.357,-0.672 1.293,-2.428 1.009,-3.238 -0.234,-0.666 -0.448,-1.318 -0.58,-2.027 -0.161,-0.868 -0.283,-1.713 -0.323,-2.6 -0.025,-0.546 -0.049,-1.093 -0.074,-1.64 -0.012,-0.279 0.034,-0.558 0.006,-0.837 C -4.185,12.971 -4.21,12.823 -4.287,12.714 -4.311,12.679 -4.4,12.629 -4.411,12.596 -4.435,12.518 -4.364,12.367 -4.342,12.289 -4.428,12.232 -4.55,12.201 -4.566,12.131 -4.683,11.646 -5.156,11.07 -5.396,10.66 -5.756,10.047 -6.089,9.41 -6.4,8.757 -7.002,7.489 -7.515,6.16 -7.976,4.807 c -0.913,-2.684 -1.62,-5.464 -2.444,-8.19 -0.038,-0.127 -0.068,-0.264 -0.129,-0.374 -0.572,-1.027 -0.804,-2.754 -0.87,-3.97 -0.108,-1.969 1.491,-0.47 1.92,-1.557 0.036,-0.092 0.058,-0.196 0.117,-0.267 0.065,-0.078 0.16,-0.101 0.25,-0.119 0.296,-0.062 0.591,-0.123 0.886,-0.184 0.014,-0.003 0.748,0 0.648,-0.102 l 0.251,0.255 c 0.056,-0.195 0.276,-0.253 0.429,-0.166 0.153,0.087 0.253,0.27 0.342,0.447 0.477,0.953 0.851,1.978 1.207,3.007 1.127,3.268 2.081,6.627 2.852,10.047 0.011,-1.355 -0.338,-2.668 -0.596,-3.985 -0.19,-0.967 -0.262,-1.973 -0.421,-2.948 l 0.159,0.216 c -0.232,-0.316 -0.33,-1.084 -0.421,-1.489 -0.05,-0.218 -0.095,-0.438 -0.134,-0.659 0.006,0.003 0.012,0.007 0.019,0.013 0.01,-0.048 0.018,-0.063 0.015,-0.076 -0.009,-0.055 -0.021,-0.109 -0.035,-0.163 -10e-4,-0.004 -0.027,-0.006 -0.033,0 -10e-4,0.002 -0.002,0.003 -0.003,0.004 -0.026,-0.169 -0.048,-0.339 -0.065,-0.509 -0.104,-1.083 -0.07,-2.18 -0.189,-3.263 -0.069,-0.63 -0.266,-1.242 -0.253,-1.884 0.001,-0.059 -0.015,-0.121 -0.033,-0.177 -0.158,-0.479 0.02,-0.821 0.406,-0.911 0.314,-0.073 0.963,-0.295 1.264,-0.181 0.07,0.026 0.138,0.066 0.212,0.078 0.087,0.014 0.175,-0.015 0.262,-0.036 0.345,-0.086 0.665,0.049 0.999,0.014 0.318,-0.033 0.598,-0.268 0.927,-0.227 -0.053,-0.011 1.844,-7.209 2.043,-7.857 0.701,-2.277 0.924,-2.829 1.547,-5.13 0.357,-1.315 1.025,-2.629 1.159,-4.011 0.133,-1.357 0.411,-3.487 0.47,-4.85 0.016,-0.373 0.144,-0.789 0.461,-0.936 0.131,-0.061 1.094,0.108 1.109,0.04 0.073,0.234 0.132,0.464 0.245,0.58 0.033,0.287 0.032,0.581 -0.006,0.868 -0.111,0.844 -0.355,1.596 -0.55,2.418 0.021,-0.025 -0.021,0.024 0,0 -0.253,1.695 -0.854,3.234 -1.419,4.797 -0.302,0.836 -0.533,1.707 -0.764,2.575 -0.974,3.676 -1.533,5.678 -2.428,9.383 -0.109,0.449 -0.201,0.905 -0.292,1.36 -0.437,2.184 -0.492,4.211 -0.564,6.448 -0.077,2.413 -0.114,4.831 -0.004,7.243 0.219,-2.684 0.328,-5.365 0.461,-8.058 0.046,-0.938 0.115,-1.874 0.159,-2.812 0.026,-0.544 0.023,-1.089 0.036,-1.633 0.005,-0.241 0.017,-0.481 0.024,-0.685 0.143,-0.228 0.316,-0.244 0.492,-0.246 0.207,-0.003 0.417,0.06 0.614,-0.084 0.046,-0.033 0.122,-0.006 0.184,-0.006 0.386,0 0.88,0.416 0.983,0.063 0.167,-0.577 0.093,-1.587 0.103,-2.197 0.021,-1.336 0.094,-2.624 0.109,-3.855 0.009,-0.705 0.223,-1.199 0.22,-1.776 0.003,0.566 0.159,1.295 0.179,1.88 0.068,1.963 -0.106,4.157 -0.122,6.152 0.001,-0.118 0.379,-0.036 0.418,-0.003 -0.107,0.121 -0.163,0.278 -0.178,0.457 -0.132,1.639 0.022,3.317 -0.254,4.939 C 3.982,-7.391 3.995,-7.289 3.995,-7.19 4.067,-7.296 4.117,-7.405 4.132,-7.521 4.189,-7.944 4.264,-8.376 4.254,-8.807 4.251,-8.968 4.235,-9.129 4.242,-9.29 c 0.011,-0.277 0.088,-0.543 0.141,-0.814 0.117,-0.581 0.134,-1.198 0.33,-1.747 0.075,-0.206 0.18,-0.405 0.337,-0.521 0.439,-0.321 1.313,0.545 1.763,0.705 0.218,0.077 0.27,0.151 0.456,0.467 0.027,0.048 0.065,0.087 0.106,0.118 0.112,0.088 0.13,0.219 0.119,0.363 -0.044,0.543 -0.091,1.087 -0.134,1.631 -0.03,0.379 -0.041,0.758 10e-4,1.139 0.042,-0.083 0.07,-0.166 0.085,-0.253 0.161,-0.971 0.395,-1.932 0.339,-2.934 -0.014,-0.237 -0.04,-0.475 -0.016,-0.711 0.053,-0.52 0.341,-0.724 0.746,-0.716 0.675,0.013 1.347,0.257 1.919,0.698 0.212,-0.327 0.557,-0.459 0.886,-0.398 0.562,0.104 0.856,0.459 1.305,0.819 0.257,0.205 0.657,0.761 0.481,1.16" />
      </g>
      <g
         transform="translate(117.6035,482.0353)"
         id="g26"
         style="stroke-width:1.00482023;fill:#ffffff">
        <path
           inkscape:connector-curvature="0"
           id="path28"
           style="fill:#ffffff;fill-opacity:1;fill-rule:nonzero;stroke:none;stroke-width:1.00482023"
           d="M 0,0 H -2.552 L 1.206,33.733 14.199,8.77 27.191,33.733 30.949,0 H 28.397 L 25.613,25.567 14.199,3.759 2.784,25.567 Z" />
      </g>
      <g
         transform="translate(211.7021,525.6525)"
         id="g30"
         style="stroke-width:1.00482023;fill:#ffffff">
        <path
           inkscape:connector-curvature="0"
           id="path32"
           style="fill:#ffffff;fill-opacity:1;fill-rule:nonzero;stroke:none;stroke-width:1.00482023"
           d="m 0,0 1.532,-1.253 -7.425,-6.496 -7.424,6.496 1.531,1.253 5.893,-5.151 z m -15.243,-37.469 c 2.521,-2.645 5.638,-3.968 9.35,-3.968 4.331,0 7.811,1.486 10.441,4.455 v -3.434 c -1.424,-1.237 -2.947,-2.149 -4.571,-2.737 -1.624,-0.588 -3.581,-0.882 -5.87,-0.882 -4.517,0 -8.291,1.57 -11.322,4.71 -3.031,3.139 -4.547,7.122 -4.547,11.949 0,4.825 1.516,8.808 4.547,11.948 3.031,3.139 6.805,4.709 11.322,4.709 2.289,0 4.246,-0.294 5.87,-0.882 1.624,-0.587 3.147,-1.5 4.571,-2.737 v -3.388 c -2.537,2.939 -6.017,4.409 -10.441,4.409 -3.712,0 -6.829,-1.323 -9.35,-3.967 -2.521,-2.646 -3.781,-6.009 -3.781,-10.092 0,-4.084 1.26,-7.448 3.781,-10.093" />
      </g>
      <g
         transform="translate(261.6748,514.5157)"
         id="g34"
         style="stroke-width:1.00482023;fill:#ffffff">
        <path
           inkscape:connector-curvature="0"
           id="path36"
           style="fill:#ffffff;fill-opacity:1;fill-rule:nonzero;stroke:none;stroke-width:1.00482023"
           d="M 0,0 V -33.733 L -24.685,-5.614 V -32.48 h -2.552 V 1.253 L -2.552,-26.958 V 0 Z" />
      </g>
      <g
         transform="translate(297.5415,495.3527)"
         id="g38"
         style="stroke-width:1.00482023;fill:#ffffff">
        <path
           inkscape:connector-curvature="0"
           id="path40"
           style="fill:#ffffff;fill-opacity:1;fill-rule:nonzero;stroke:none;stroke-width:1.00482023"
           d="M 0,0 -5.986,14.523 -11.972,0 Z m -17.447,-13.317 h -2.877 L -5.986,20.416 8.352,-13.317 H 5.476 L 0.974,-2.413 h -13.966 z" />
      </g>
    </g>
  </g>
</svg>
